<svg width="142" height="39" viewBox="0 0 142 39" fill="none" xmlns="http://www.w3.org/2000/svg">
<path d="M49.44 31.33C50.08 31.07 50.35 30.43 50.35 29.81C50.35 28.74 49.63 28.11 48.52 28.11H46.02V35H48.77C49.99 35 50.72 34.08 50.72 33.1C50.72 32.38 50.32 31.56 49.44 31.33ZM49.69 29.86C49.69 30.54 49.32 31.07 48.64 31.07H46.68V28.73H48.51C49.24 28.73 49.69 29.16 49.69 29.86ZM46.68 34.38V31.65H48.63C49.53 31.65 50.06 32.31 50.06 33.05C50.06 33.76 49.55 34.38 48.66 34.38H46.68ZM56.4395 32.65C56.4395 31.17 55.4595 30.21 54.1295 30.21C52.8095 30.21 51.7595 31.17 51.7595 32.65C51.7595 34.13 52.8095 35.12 54.1295 35.12C55.0095 35.12 55.8095 34.68 56.2195 33.93L55.6695 33.69C55.3595 34.2 54.7895 34.51 54.1495 34.51C53.2095 34.51 52.5095 33.93 52.3995 32.93H56.4195C56.4295 32.84 56.4395 32.74 56.4395 32.65ZM52.4095 32.38C52.5395 31.38 53.2095 30.82 54.1295 30.82C55.0395 30.82 55.7095 31.41 55.7995 32.38H52.4095ZM61.5948 31.24C61.2448 30.6 60.5248 30.21 59.7248 30.21C58.3948 30.21 57.3648 31.3 57.3648 32.66C57.3648 34.05 58.4348 35.12 59.7048 35.12C60.5348 35.12 61.2548 34.67 61.5948 34.03V35H62.2348V30.33H61.5948V31.24ZM59.7848 34.51C58.7948 34.51 57.9948 33.67 57.9948 32.66C57.9948 31.66 58.7948 30.82 59.7748 30.82C60.7148 30.82 61.5948 31.59 61.5948 32.68C61.5948 33.73 60.7548 34.51 59.7848 34.51ZM67.2871 32.94C67.2771 34.07 66.4771 34.51 65.7371 34.51C64.9771 34.51 64.4171 33.94 64.4171 33.04V30.33H63.7771V33.05C63.7671 34.34 64.5371 35.12 65.6671 35.12C66.2471 35.12 67.0071 34.84 67.2871 34.18V35H67.9271V30.33H67.2871V32.94ZM70.4805 30.33V28.58H69.8505V30.33H69.0005V30.88H69.8505V35H70.4805V30.88H71.5505V30.33H70.4805ZM74.2383 34.15L72.6483 30.33H71.9583L73.8883 34.95L72.9283 37.27H73.6083L76.5383 30.33H75.8483L74.2383 34.15ZM84.0459 31.24C83.6959 30.6 82.9759 30.21 82.1759 30.21C80.8459 30.21 79.8159 31.3 79.8159 32.66C79.8159 34.05 80.8859 35.12 82.1559 35.12C82.9859 35.12 83.7059 34.67 84.0459 34.03V35H84.6859V30.33H84.0459V31.24ZM82.2359 34.51C81.2459 34.51 80.4459 33.67 80.4459 32.66C80.4459 31.66 81.2459 30.82 82.2259 30.82C83.1659 30.82 84.0459 31.59 84.0459 32.68C84.0459 33.73 83.2059 34.51 82.2359 34.51ZM88.5483 30.21C87.9683 30.21 87.2083 30.5 86.9283 31.17V30.33H86.2883V35H86.9283V32.41C86.9483 31.28 87.7383 30.84 88.4883 30.84C89.2383 30.84 89.8083 31.41 89.8083 32.31V35H90.4483V32.28C90.4483 30.99 89.6783 30.21 88.5483 30.21ZM95.8916 31.23C95.5416 30.59 94.8216 30.21 94.0316 30.21C92.7216 30.21 91.6616 31.24 91.6616 32.66C91.6616 34.08 92.7316 35.12 94.0316 35.12C94.8116 35.12 95.5416 34.73 95.8916 34.09V35H96.5316V27.79H95.8916V31.23ZM94.0816 34.51C93.1016 34.51 92.3016 33.69 92.3016 32.65C92.3016 31.62 93.1016 30.82 94.0816 30.82C95.0116 30.82 95.8916 31.55 95.8916 32.68C95.8916 33.76 95.0516 34.51 94.0816 34.51ZM106.351 30.21C105.801 30.21 104.991 30.41 104.631 31.33C104.371 30.61 103.741 30.21 102.991 30.21C102.301 30.21 101.621 30.54 101.391 31.16V30.33H100.751V35H101.391V32.41C101.411 31.29 102.131 30.83 102.881 30.83C103.621 30.83 104.161 31.4 104.161 32.31V35H104.791V32.62C104.791 31.37 105.371 30.82 106.251 30.83C107.021 30.83 107.561 31.41 107.561 32.31V35H108.201V32.28C108.201 30.99 107.481 30.21 106.351 30.21ZM113.655 31.24C113.305 30.6 112.585 30.21 111.785 30.21C110.455 30.21 109.425 31.3 109.425 32.66C109.425 34.05 110.495 35.12 111.765 35.12C112.595 35.12 113.315 34.67 113.655 34.03V35H114.295V30.33H113.655V31.24ZM111.845 34.51C110.855 34.51 110.055 33.67 110.055 32.66C110.055 31.66 110.855 30.82 111.835 30.82C112.775 30.82 113.655 31.59 113.655 32.68C113.655 33.73 112.815 34.51 111.845 34.51ZM117.218 35.12C118.188 35.12 118.938 34.57 118.938 33.74C118.938 33.2 118.658 32.65 117.748 32.43L117.058 32.26C116.718 32.18 116.338 31.99 116.338 31.55C116.338 31.11 116.708 30.78 117.248 30.78C117.708 30.78 118.118 31.06 118.148 31.48H118.768C118.738 30.64 118.018 30.21 117.238 30.21C116.348 30.21 115.698 30.78 115.698 31.54C115.698 32.32 116.228 32.66 116.888 32.82L117.558 32.98C118.038 33.1 118.298 33.35 118.298 33.73C118.298 34.2 117.888 34.55 117.218 34.55C116.538 34.55 116.178 34.15 116.108 33.76H115.518C115.598 34.65 116.408 35.12 117.218 35.12ZM121.505 35.12C122.475 35.12 123.225 34.57 123.225 33.74C123.225 33.2 122.945 32.65 122.035 32.43L121.345 32.26C121.005 32.18 120.625 31.99 120.625 31.55C120.625 31.11 120.995 30.78 121.535 30.78C121.995 30.78 122.405 31.06 122.435 31.48H123.055C123.025 30.64 122.305 30.21 121.525 30.21C120.635 30.21 119.985 30.78 119.985 31.54C119.985 32.32 120.515 32.66 121.175 32.82L121.845 32.98C122.325 33.1 122.585 33.35 122.585 33.73C122.585 34.2 122.175 34.55 121.505 34.55C120.825 34.55 120.465 34.15 120.395 33.76H119.805C119.885 34.65 120.695 35.12 121.505 35.12ZM128.382 31.24C128.032 30.6 127.312 30.21 126.512 30.21C125.182 30.21 124.152 31.3 124.152 32.66C124.152 34.05 125.222 35.12 126.492 35.12C127.322 35.12 128.042 34.67 128.382 34.03V35H129.022V30.33H128.382V31.24ZM126.572 34.51C125.582 34.51 124.782 33.67 124.782 32.66C124.782 31.66 125.582 30.82 126.562 30.82C127.502 30.82 128.382 31.59 128.382 32.68C128.382 33.73 127.542 34.51 126.572 34.51ZM134.534 31.23C134.184 30.6 133.464 30.21 132.674 30.21C131.364 30.21 130.304 31.24 130.304 32.66C130.304 34.08 131.374 35.12 132.674 35.12C133.454 35.12 134.184 34.73 134.534 34.1V34.4C134.534 36.2 133.784 36.78 132.644 36.78C132.084 36.78 131.504 36.5 131.164 35.94L130.624 36.24C131.084 37 131.854 37.39 132.644 37.39C134.164 37.39 135.174 36.62 135.174 34.36V30.33H134.534V31.23ZM132.724 34.51C131.744 34.51 130.944 33.69 130.944 32.65C130.944 31.62 131.744 30.82 132.724 30.82C133.654 30.82 134.534 31.55 134.534 32.68C134.534 33.76 133.694 34.51 132.724 34.51ZM141.147 32.65C141.147 31.17 140.167 30.21 138.837 30.21C137.517 30.21 136.467 31.17 136.467 32.65C136.467 34.13 137.517 35.12 138.837 35.12C139.717 35.12 140.517 34.68 140.927 33.93L140.377 33.69C140.067 34.2 139.497 34.51 138.857 34.51C137.917 34.51 137.217 33.93 137.107 32.93H141.127C141.137 32.84 141.147 32.74 141.147 32.65ZM137.117 32.38C137.247 31.38 137.917 30.82 138.837 30.82C139.747 30.82 140.417 31.41 140.507 32.38H137.117Z" fill="#221E1F"/>
<path d="M45.84 3.2V3.896H47.4V19.304H45.84V20H52.56V19.304H51V12.176L51.648 12.032L56.04 19.304H54.624V20H61.584V19.304H60.192L54.288 9.32L58.824 3.896H60.384V3.2H55.848V3.896H57.696L51.552 11.12L51 11.264V3.896H52.56V3.2H45.84ZM71.5331 14.264C68.2931 14.264 66.2051 14.912 66.2051 17.384C66.2051 19.64 67.8851 20.24 69.6371 20.24C71.1731 20.24 72.1811 19.664 72.7091 18.536C72.9491 19.664 73.8371 20.24 75.4451 20.24C77.3171 20.24 78.1091 19.328 78.2291 16.688L77.6771 16.64C77.5091 18.56 77.1971 18.944 76.7171 18.944C76.2611 18.944 75.9731 18.608 75.9731 17.6V12.872C75.9731 9.392 74.6531 8.336 71.3171 8.336C68.5811 8.336 66.7331 9.32 66.7331 11.192C66.7331 12.248 67.2611 12.944 68.4131 12.944C69.3971 12.944 70.1411 12.344 70.1411 11.336C70.1411 10.952 70.0691 10.64 69.9491 10.328H69.3011C69.2531 10.16 69.2291 9.992 69.2291 9.848C69.2291 9.2 69.9011 8.912 70.7411 8.912C72.2051 8.912 72.6131 9.896 72.6131 12.512V14.264H71.5331ZM70.8611 19.208C70.0691 19.208 69.7091 18.728 69.7091 17.312C69.7091 15.704 70.3331 14.864 72.0611 14.864H72.6131V16.856C72.6131 18.344 71.7251 19.208 70.8611 19.208ZM90.186 9.32C90.498 9.32 90.834 9.416 90.834 9.872C90.834 10.016 90.81 10.184 90.714 10.4H89.97C89.922 10.64 89.898 10.88 89.898 11.096C89.898 12.344 90.618 12.872 91.578 12.872C92.61 12.872 93.306 12.2 93.306 10.832C93.306 9.272 92.298 8.336 90.834 8.336C89.442 8.336 88.266 9.104 87.762 10.808V8.576H82.818V9.2H84.378V19.376H82.818V20H89.898V19.376H87.762V13.448C87.762 11.288 88.89 9.32 90.186 9.32ZM99.1599 4.664C99.1599 5.528 99.5679 6.512 101.104 6.512C102.424 6.512 103.024 5.72 103.024 4.664C103.024 3.416 102.28 2.84 101.128 2.84C99.7599 2.84 99.1599 3.704 99.1599 4.664ZM97.9839 8.576V9.2H99.5919V19.376H98.0319V20H104.56V19.376H102.976V8.576H97.9839ZM109.4 8.576V9.2H110.96V19.376H109.4V20H115.76V19.376H114.344V13.136C114.344 11.048 115.664 9.464 117.104 9.464C118.136 9.464 118.496 10.088 118.496 11.984V19.376H117.104V20H123.464V19.376H121.88V12.344C121.88 9.44 120.464 8.336 118.256 8.336C115.88 8.336 114.872 9.536 114.344 10.736V8.576H109.4ZM133.814 14.264C130.574 14.264 128.486 14.912 128.486 17.384C128.486 19.64 130.166 20.24 131.918 20.24C133.454 20.24 134.462 19.664 134.99 18.536C135.23 19.664 136.118 20.24 137.726 20.24C139.598 20.24 140.39 19.328 140.51 16.688L139.958 16.64C139.79 18.56 139.478 18.944 138.998 18.944C138.542 18.944 138.254 18.608 138.254 17.6V12.872C138.254 9.392 136.934 8.336 133.598 8.336C130.862 8.336 129.014 9.32 129.014 11.192C129.014 12.248 129.542 12.944 130.694 12.944C131.678 12.944 132.422 12.344 132.422 11.336C132.422 10.952 132.35 10.64 132.23 10.328H131.582C131.534 10.16 131.51 9.992 131.51 9.848C131.51 9.2 132.182 8.912 133.022 8.912C134.486 8.912 134.894 9.896 134.894 12.512V14.264H133.814ZM133.142 19.208C132.35 19.208 131.99 18.728 131.99 17.312C131.99 15.704 132.614 14.864 134.342 14.864H134.894V16.856C134.894 18.344 134.006 19.208 133.142 19.208Z" fill="#221E1F"/>
<path fill-rule="evenodd" clip-rule="evenodd" d="M0 20.4732C0.866041 29.8263 7.85774 34 15.7366 34C15.7366 25.6778 7.85774 19.4424 0 20.4732ZM16.7856 27.7054C22.3809 20.9649 22.3809 11.3655 16.7856 4.625C11.1904 11.3655 11.1904 20.9649 16.7856 27.7054ZM33.5715 20.4732C25.7137 19.4424 17.8349 25.6778 17.8349 34C25.7137 34 32.7054 29.8263 33.5715 20.4732Z" fill="#B89288"/>
</svg>
